<?xml version="1.0" standalone="no"?>
<!DOCTYPE svg PUBLIC "-//W3C//DTD SVG 20010904//EN" "http://www.w3.org/TR/2001/REC-SVG-20010904/DTD/svg10.dtd">
<!-- Created using Krita: https://krita.org -->
<svg xmlns="http://www.w3.org/2000/svg" 
    xmlns:xlink="http://www.w3.org/1999/xlink"
    xmlns:krita="http://krita.org/namespaces/svg/krita"
    xmlns:sodipodi="http://sodipodi.sourceforge.net/DTD/sodipodi-0.dtd"
    width="245.76pt"
    height="245.76pt"
    viewBox="0 0 245.76 245.76">
<defs/>
<path id="shape02" transform="matrix(-0.948402409618903 0.317069187132824 -0.317069187132824 -0.948402409618903 222.554150346591 177.836084942961)" fill="#fee4b3" fill-rule="evenodd" stroke="#000000" stroke-width="1.44" stroke-linecap="square" stroke-linejoin="bevel" d="M11.4384 0.268144L65.3459 0L47.905 51.3826L0 36.9216Z" sodipodi:nodetypes="ccccc"/><path id="shape0" transform="matrix(0.956418779828723 -0.291998489021676 0.291998489021676 0.956418779828723 17.4702831477371 145.438790065849)" fill="#fee4b3" fill-rule="evenodd" stroke="#000000" stroke-width="1.44" stroke-linecap="square" stroke-linejoin="bevel" d="M11.4384 0.268144L65.3459 0L47.905 51.3826L0 36.9216Z" sodipodi:nodetypes="ccccc"/><path id="shape01" transform="matrix(0.85799857854176 -0.513652060465376 0.513652060465376 0.85799857854176 184.129258792082 163.816076315285)" fill="#fee4b3" fill-rule="evenodd" stroke="#000000" stroke-width="1.44" stroke-linecap="square" stroke-linejoin="bevel" d="M8.32839 0L44.3539 5.58038C31.6029 16.3541 30.8184 29.5118 31.655 42.9925L0 26.6877Z" sodipodi:nodetypes="ccccc"/><path id="shape03" transform="matrix(-0.955441969142303 0.295179002643299 -0.295179002643299 -0.955441969142303 225.34176620968 116.279659963628)" fill="#fee4b3" fill-rule="evenodd" stroke="#000000" stroke-width="1.44" stroke-linecap="square" stroke-linejoin="bevel" d="M11.4384 0.268144L65.3459 0L47.905 51.3826L0 36.9216Z" sodipodi:nodetypes="ccccc"/><path id="shape1" transform="matrix(0.989093128789931 0.147291488486426 -0.147291488486426 0.989093128789931 9.58807332316531 55.5196220680844)" fill="#fee4b3" fill-rule="evenodd" stroke="#000000" stroke-width="1.44" stroke-linecap="square" stroke-linejoin="bevel" d="M0 0L57.84 0L57.84 37.92L0 37.44C13.3337 18.1027 8.87282 7.91684 0 0Z" sodipodi:nodetypes="ccccc"/><path id="shape2" transform="matrix(0.956418779828723 -0.291998489021677 0.291998489021677 0.956418779828723 13.7604546387724 84.0967118577492)" fill="#fee4b3" fill-rule="evenodd" stroke="#000000" stroke-width="1.44" stroke-linecap="square" stroke-linejoin="bevel" d="M11.4384 0.268144L65.3459 0L47.905 51.3826L0 36.9216Z" sodipodi:nodetypes="ccccc"/><path id="shape04" transform="matrix(0.995630047189993 0.0933852725672296 -0.0933852725672296 0.995630047189993 65.2308728386512 6.24992617761937)" fill="none" stroke="#000000" stroke-width="1.44" stroke-linecap="square" stroke-linejoin="bevel" d="M10.9215 1.84274e-15L140.038 0C146.07 3.7888e-16 150.96 5.01603 150.96 11.2036L150.96 181.996C150.96 188.184 146.07 193.2 140.038 193.2L10.9215 193.2C4.88974 193.2 1.05767e-15 188.184 1.79635e-15 181.996L0 11.2036C7.38683e-16 5.01603 4.88974 1.46386e-15 10.9215 1.84274e-15Z" sodipodi:nodetypes="ccccccccc"/><path id="shape11" transform="matrix(0.998496897893355 -0.0548082557408484 0.0548082557408484 0.998496897893355 37.7789766679678 39.8546242381948)" fill="none" stroke="#000000" stroke-width="1.44" stroke-linecap="square" stroke-linejoin="bevel" d="M10.9215 1.84274e-15L140.038 0C146.07 3.7888e-16 150.96 5.01603 150.96 11.2036L150.96 181.996C150.96 188.184 146.07 193.2 140.038 193.2L10.9215 193.2C4.88974 193.2 1.05767e-15 188.184 1.79635e-15 181.996L0 11.2036C7.38683e-16 5.01603 4.88974 1.46386e-15 10.9215 1.84274e-15Z" sodipodi:nodetypes="ccccccccc"/><path id="shape011" transform="matrix(0.998544532922405 0.0539334383363703 -0.0539334383363703 0.998544532922405 55.1198287873905 23.6021998335359)" fill="none" stroke="#000000" stroke-width="1.44" stroke-linecap="square" stroke-linejoin="bevel" d="M10.9215 1.84274e-15L140.038 0C146.07 3.7888e-16 150.96 5.01603 150.96 11.2036L150.96 181.996C150.96 188.184 146.07 193.2 140.038 193.2L10.9215 193.2C4.88974 193.2 1.05767e-15 188.184 1.79635e-15 181.996L0 11.2036C7.38683e-16 5.01603 4.88974 1.46386e-15 10.9215 1.84274e-15Z" sodipodi:nodetypes="ccccccccc"/><rect id="shape05" transform="translate(24.2400000202656, 80.4524976044844)" fill="#fee4b3" fill-rule="evenodd" stroke="#000000" stroke-width="1.44" stroke-linecap="square" stroke-linejoin="bevel" width="189.6" height="39.12"/><rect id="shape012" transform="translate(28.5599998492749, 142.188508728781)" fill="#fee4b3" fill-rule="evenodd" stroke="#000000" stroke-width="1.44" stroke-linecap="square" stroke-linejoin="bevel" width="182.880000183657" height="39.12"/>
</svg>
